HIERARCHY
ROOT Hips
{
    OFFSET   0.000000   0.000000   0.000000
    CHANNELS 6 Xposition Yposition Zposition Zrotation Xrotation Yrotation
    JOINT Chest
    {
        OFFSET   0.000000   8.007230   0.000000
        CHANNELS 3 Zrotation Xrotation Yrotation
        JOINT Chest2
        {
            OFFSET   0.000000  22.077100   0.000000
            CHANNELS 3 Zrotation Xrotation Yrotation
            JOINT Neck
            {
                OFFSET   0.000000  23.254700   0.000000
                CHANNELS 3 Zrotation Xrotation Yrotation
                JOINT Head
                {
                    OFFSET   0.000010  14.370000   1.956610
                    CHANNELS 3 Zrotation Xrotation Yrotation
                    End Site
                    {
                        OFFSET   0.000000  19.566000   0.000000
                    }
                }
            }
            JOINT LeftCollar
            {
                OFFSET   3.911900  19.017000  -0.467063
                CHANNELS 3 Zrotation Xrotation Yrotation
                JOINT LeftShoulder
                {
                    OFFSET  10.383700   0.000000   0.000000
                    CHANNELS 3 Zrotation Xrotation Yrotation
                    JOINT LeftElbow
                    {
                        OFFSET  26.662100   0.001671   0.000522
                        CHANNELS 3 Zrotation Xrotation Yrotation
                        JOINT LeftWrist
                        {
                            OFFSET  28.869000   0.000037  -0.000114
                            CHANNELS 3 Zrotation Xrotation Yrotation
                            JOINT LeftFinger0
                            {
                                OFFSET   2.044650  -2.323450   3.252850
                                CHANNELS 3 Zrotation Xrotation Yrotation
                                JOINT LeftFinger01
                                {
                                    OFFSET   3.088140   0.000000   0.000000
                                    CHANNELS 3 Zrotation Xrotation Yrotation
                                    JOINT LeftFinger02
                                    {
                                        OFFSET   2.639460   0.000000   0.000000
                                        CHANNELS 3 Zrotation Xrotation Yrotation
                                        End Site
                                        {
                                            OFFSET   2.582190   0.000000   0.000000
                                        }
                                    }
                                }
                            }
                            JOINT LeftFinger1
                            {
                                OFFSET   8.364480   0.000000   3.252850
                                CHANNELS 3 Zrotation Xrotation Yrotation
                                JOINT LeftFinger11
                                {
                                    OFFSET   4.646930   0.000000   0.000000
                                    CHANNELS 3 Zrotation Xrotation Yrotation
                                    JOINT LeftFinger12
                                    {
                                        OFFSET   2.323470   0.000000   0.000000
                                        CHANNELS 3 Zrotation Xrotation Yrotation
                                        End Site
                                        {
                                            OFFSET   2.273050   0.000000   0.000000
                                        }
                                    }
                                }
                            }
                            JOINT LeftFinger2
                            {
                                OFFSET   8.364490   0.000016   1.078090
                                CHANNELS 3 Zrotation Xrotation Yrotation
                                JOINT LeftFinger21
                                {
                                    OFFSET   5.111620   0.000000   0.000000
                                    CHANNELS 3 Zrotation Xrotation Yrotation
                                    JOINT LeftFinger22
                                    {
                                        OFFSET   2.788150   0.000013   0.000000
                                        CHANNELS 3 Zrotation Xrotation Yrotation
                                        End Site
                                        {
                                            OFFSET   2.727660   0.000000   0.000000
                                        }
                                    }
                                }
                            }
                            JOINT LeftFinger3
                            {
                                OFFSET   7.899780   0.000016  -1.078090
                                CHANNELS 3 Zrotation Xrotation Yrotation
                                JOINT LeftFinger31
                                {
                                    OFFSET   4.646930   0.000000   0.000000
                                    CHANNELS 3 Zrotation Xrotation Yrotation
                                    JOINT LeftFinger32
                                    {
                                        OFFSET   2.323470   0.000000   0.000000
                                        CHANNELS 3 Zrotation Xrotation Yrotation
                                        End Site
                                        {
                                            OFFSET   2.273050   0.000000   0.000000
                                        }
                                    }
                                }
                            }
                            JOINT LeftFinger4
                            {
                                OFFSET   7.435080   0.000000  -3.252850
                                CHANNELS 3 Zrotation Xrotation Yrotation
                                JOINT LeftFinger41
                                {
                                    OFFSET   3.717550   0.000000   0.000000
                                    CHANNELS 3 Zrotation Xrotation Yrotation
                                    JOINT LeftFinger42
                                    {
                                        OFFSET   1.858760   0.000000   0.000000
                                        CHANNELS 3 Zrotation Xrotation Yrotation
                                        End Site
                                        {
                                            OFFSET   1.818440   0.000000   0.000000
                                        }
                                    }
                                }
                            }
                        }
                    }
                }
            }
            JOINT RightCollar
            {
                OFFSET  -3.911900  19.017000  -0.467064
                CHANNELS 3 Zrotation Xrotation Yrotation
                JOINT RightShoulder
                {
                    OFFSET -10.383700   0.000000   0.000000
                    CHANNELS 3 Zrotation Xrotation Yrotation
                    JOINT RightElbow
                    {
                        OFFSET -26.662100   0.001633   0.000260
                        CHANNELS 3 Zrotation Xrotation Yrotation
                        JOINT RightWrist
                        {
                            OFFSET -28.869000  -0.000045  -0.000080
                            CHANNELS 3 Zrotation Xrotation Yrotation
                            JOINT RightFinger0
                            {
                                OFFSET  -2.044660  -2.323490   3.252850
                                CHANNELS 3 Zrotation Xrotation Yrotation
                                JOINT RightFinger01
                                {
                                    OFFSET  -3.088140   0.000000   0.000000
                                    CHANNELS 3 Zrotation Xrotation Yrotation
                                    JOINT RightFinger02
                                    {
                                        OFFSET  -2.639450   0.000000   0.000000
                                        CHANNELS 3 Zrotation Xrotation Yrotation
                                        End Site
                                        {
                                            OFFSET  -2.582190   0.000000   0.000000
                                        }
                                    }
                                }
                            }
                            JOINT RightFinger1
                            {
                                OFFSET  -8.364480   0.000000   3.252850
                                CHANNELS 3 Zrotation Xrotation Yrotation
                                JOINT RightFinger11
                                {
                                    OFFSET  -4.646920   0.000000   0.000000
                                    CHANNELS 3 Zrotation Xrotation Yrotation
                                    JOINT RightFinger12
                                    {
                                        OFFSET  -2.323470   0.000000   0.000000
                                        CHANNELS 3 Zrotation Xrotation Yrotation
                                        End Site
                                        {
                                            OFFSET  -2.273050   0.000000   0.000000
                                        }
                                    }
                                }
                            }
                            JOINT RightFinger2
                            {
                                OFFSET  -8.364480   0.000000   1.078090
                                CHANNELS 3 Zrotation Xrotation Yrotation
                                JOINT RightFinger21
                                {
                                    OFFSET  -5.111610   0.000000   0.000000
                                    CHANNELS 3 Zrotation Xrotation Yrotation
                                    JOINT RightFinger22
                                    {
                                        OFFSET  -2.788160   0.000000   0.000000
                                        CHANNELS 3 Zrotation Xrotation Yrotation
                                        End Site
                                        {
                                            OFFSET  -2.727660   0.000000   0.000000
                                        }
                                    }
                                }
                            }
                            JOINT RightFinger3
                            {
                                OFFSET  -7.899780   0.000000  -1.078090
                                CHANNELS 3 Zrotation Xrotation Yrotation
                                JOINT RightFinger31
                                {
                                    OFFSET  -4.646930   0.000000   0.000000
                                    CHANNELS 3 Zrotation Xrotation Yrotation
                                    JOINT RightFinger32
                                    {
                                        OFFSET  -2.323470   0.000000   0.000000
                                        CHANNELS 3 Zrotation Xrotation Yrotation
                                        End Site
                                        {
                                            OFFSET  -2.273050   0.000000   0.000000
                                        }
                                    }
                                }
                            }
                            JOINT RightFinger4
                            {
                                OFFSET  -7.435090   0.000000  -3.252850
                                CHANNELS 3 Zrotation Xrotation Yrotation
                                JOINT RightFinger41
                                {
                                    OFFSET  -3.717550   0.000000   0.000000
                                    CHANNELS 3 Zrotation Xrotation Yrotation
                                    JOINT RightFinger42
                                    {
                                        OFFSET  -1.858760   0.000000   0.000000
                                        CHANNELS 3 Zrotation Xrotation Yrotation
                                        End Site
                                        {
                                            OFFSET  -1.818440   0.000000   0.000000
                                        }
                                    }
                                }
                            }
                        }
                    }
                }
            }
        }
    }
    JOINT LeftHip
    {
        OFFSET   9.782990   0.000000   0.000000
        CHANNELS 3 Zrotation Xrotation Yrotation
        JOINT LeftKnee
        {
            OFFSET  -0.000063 -41.789100   0.001657
            CHANNELS 3 Zrotation Xrotation Yrotation
            JOINT LeftAnkle
            {
                OFFSET   0.000078 -41.133200  -0.000113
                CHANNELS 3 Zrotation Xrotation Yrotation
                JOINT LeftToe
                {
                    OFFSET   0.000000  -6.358970  14.674500
                    CHANNELS 3 Zrotation Xrotation Yrotation
                    End Site
                    {
                        OFFSET   0.000000   0.000000   3.913200
                    }
                }
            }
        }
    }
    JOINT RightHip
    {
        OFFSET  -9.782990   0.000000   0.000000
        CHANNELS 3 Zrotation Xrotation Yrotation
        JOINT RightKnee
        {
            OFFSET   0.000053 -41.789200   0.000277
            CHANNELS 3 Zrotation Xrotation Yrotation
            JOINT RightAnkle
            {
                OFFSET   0.000030 -41.133200  -0.000150
                CHANNELS 3 Zrotation Xrotation Yrotation
                JOINT RightToe
                {
                    OFFSET   0.000000  -6.358960  14.674500
                    CHANNELS 3 Zrotation Xrotation Yrotation
                    End Site
                    {
                        OFFSET   0.000000   0.000000   3.913200
                    }
                }
            }
        }
    }
}
MOTION
Frames: 5
Frame Time:   0.016667
  0.390360  89.478700  -0.123403  -3.013030 -15.848700   2.543320   0.679156   9.100890   2.509800   0.966671  18.222600   5.005540   4.434280   1.020460  -0.087535   7.291160   2.031980 -13.026700  -3.661440  -2.520130  -0.820442 -74.390500  18.520600  -5.379380  -1.229000  -5.299620 -16.190200  11.693500  -1.969950   3.514910  38.789900  31.125200 -55.339300 -32.155100   0.000000   0.000066 -11.077500   0.002799  -0.000000 -31.892800   4.857550  -7.748640 -26.363400   0.003287   0.001569 -18.454400  -0.002994   0.005098 -28.789500  -0.832142   1.514910 -42.444600  -0.005049   0.005865 -28.268100  -0.005252   0.001663 -28.729200  -0.830641   1.515730 -39.982700  -0.005774   0.000690 -26.628500  -0.004579   0.001142 -34.653400  -0.982394   1.422100 -51.998700   0.000577   0.000071 -34.631100  -0.005695   0.000000   7.292360  -3.069860   9.492590  40.028900  -7.881860  47.049900 -40.347500  -7.106470  46.095400 -61.575200  15.240400  19.906500 -25.277700  59.750400  64.333700  81.543400  -0.006814  -0.015596  47.647800  -0.002450   0.003629   5.016290   1.605840  17.709400   4.308960   0.000402  -0.009884   3.016270  -0.000541  -0.003979  89.000000   0.000989  -0.001272  93.040600  -0.002799  -0.002585  69.780400  -0.001797   0.005160  88.996600  -4.991570  -0.083562  89.189500  -0.001669   0.003071  66.892100  -0.001773   0.002403  88.985300  -9.995340  -0.172484 110.000000  -0.000912   0.000619  79.999900   0.004549   0.001217   3.361290  18.662800   4.742920   0.766822   0.089876  -0.123465  -1.963020  -3.350790  -0.290110  -0.000000   0.000000   0.000000   4.451980  16.747500  -2.048470  -1.705720   4.566850  -6.327780   0.192631  -6.168180  -1.690030   0.000000   0.000000  -0.000000
  0.395168  89.477700  -0.112477  -3.009630 -15.825900   2.556750   0.678198   9.098050   2.502020   0.966228  18.216900   4.989800   4.442760   1.006430  -0.087609   7.305050   2.003910 -13.025100  -3.657130  -2.514270  -0.840636 -74.321200  18.662800  -5.516890  -1.147620  -5.313120 -16.427000  11.722800  -2.079510   3.567860  38.763500  31.109200 -55.179600 -32.236900   0.000000   0.000075 -11.118400   0.002766  -0.000000 -31.912500   4.897610  -7.798250 -26.380200   0.003489   0.001571 -18.468000  -0.003022   0.005384 -28.786500  -0.933379   1.698720 -42.510700  -0.005049   0.005864 -28.312100  -0.005253   0.001662 -28.728800  -0.931734   1.699630 -40.056700  -0.005774   0.000690 -26.677800  -0.004578   0.001142 -34.734700  -1.103390   1.593590 -52.124800   0.000576   0.000070 -34.715100  -0.005694   0.000000   7.296110  -3.051850   9.484770  39.992600  -7.849290  47.023500 -40.349600  -7.332290  46.180000 -61.529200  15.332000  19.964200 -25.417000  59.939900  64.452000  81.532500  -0.006901  -0.015621  47.640500  -0.002495   0.003659   5.009070   1.626560  17.960500   4.308630   0.000393  -0.010146   3.016040  -0.000562  -0.004076  89.000000   0.000957  -0.001212  92.983500  -0.002984  -0.002536  69.737600  -0.001758   0.005072  88.996500  -4.991760  -0.083613  89.168800  -0.001662   0.003200  66.876500  -0.001768   0.002424  88.985200  -9.995470  -0.172649 110.000000  -0.000874   0.000596  79.999900   0.004540   0.001165   3.349930  18.664600   4.743340   0.766555   0.046818  -0.132293  -1.961370  -3.332150  -0.286920   0.000000   0.000000   0.000000   4.431670  16.733100  -2.041330  -1.696510   4.565370  -6.317500   0.196397  -6.173390  -1.715010   0.000000   0.000000   0.000000
  0.399539  89.476700  -0.102719  -3.008500 -15.804400   2.563650   0.679263   9.093600   2.490540   0.970426  18.208000   4.966210   4.446750   0.997949  -0.087674   7.311320   1.987020 -13.014800  -3.653680  -2.503020  -0.849596 -74.255200  18.804300  -5.656290  -1.058250  -5.318330 -16.689700  11.750900  -2.215230   3.620890  38.716700  31.117900 -54.979900 -32.318800   0.000000   0.000076 -11.159400   0.002732   0.000000 -31.942300   4.903330  -7.805340 -26.408300   0.003690   0.001571 -18.485800  -0.003046   0.005672 -28.781200  -1.050890   1.912010 -42.582300  -0.005049   0.005864 -28.359800  -0.005254   0.001661 -28.729300  -1.049170   1.912960 -40.138600  -0.005774   0.000689 -26.732400  -0.004578   0.001142 -34.820500  -1.247210   1.790180 -52.258700   0.000574   0.000069 -34.804300  -0.005693   0.000000   7.299070  -3.012750   9.483070  39.980300  -7.807510  47.005100 -40.409500  -7.536540  46.249500 -61.527900  15.426300  20.022300 -25.533600  60.058100  64.565800  81.530900  -0.006982  -0.015643  47.639500  -0.002540   0.003689   5.001500   1.649060  18.197400   4.308290   0.000382  -0.010409   3.015820  -0.000587  -0.004174  89.000000   0.000927  -0.001151  92.926400  -0.003170  -0.002485  69.694800  -0.001721   0.004978  88.996500  -4.991950  -0.083714  89.148100  -0.001649   0.003326  66.860900  -0.001759   0.002446  88.985200  -9.995590  -0.172813 110.000000  -0.000841   0.000573  79.999900   0.004533   0.001113   3.342990  18.666300   4.745930   0.766271   0.002328  -0.139587  -1.958950  -3.313510  -0.284523   0.000000   0.000000   0.000000   4.416950  16.720500  -2.036970  -1.688730   4.560410  -6.308960   0.197466  -6.175180  -1.730810  -0.000000   0.000000  -0.000000
  0.402455  89.475700  -0.093465  -3.009800 -15.781900   2.562030   0.683030   9.084140   2.472760   0.981810  18.189200   4.929250   4.438400   0.998826  -0.087727   7.297970   1.989000 -12.979900  -3.651670  -2.481010  -0.849060 -74.198800  18.938400  -5.783390  -0.958729  -5.295990 -16.985500  11.788600  -2.378360   3.619600  38.742600  31.200700 -54.950200 -32.313100   0.000000   0.000038 -11.156500   0.002695   0.000035 -31.970900   4.897700  -7.787910 -26.431000   0.003887   0.001569 -18.501700  -0.003060   0.005964 -28.777900  -1.069910   1.946390 -42.681800  -0.005050   0.005865 -28.426100  -0.005254   0.001661 -28.733400  -1.068270   1.947280 -40.213800  -0.005774   0.000690 -26.782400  -0.004578   0.001142 -34.913500  -1.273880   1.819450 -52.398100   0.000574   0.000069 -34.897200  -0.005693  -0.000000   7.302210  -2.952570   9.491140  40.011500  -7.735530  47.021200 -40.570600  -7.678560  46.278700 -61.474900  15.530600  20.028500 -25.264700  59.760500  64.379800  81.551300  -0.007045  -0.015665  47.653100  -0.002589   0.003716   5.118030   1.681580  18.109700   4.403430   0.000366  -0.010691   3.082420  -0.000610  -0.004266  89.000000   0.000895  -0.001115  92.947900  -0.003342  -0.002442  69.710900  -0.001676   0.004873  88.996500  -4.992150  -0.083829  89.148700  -0.001638   0.003451  66.861400  -0.001750   0.002469  88.985200  -9.995720  -0.172981 110.000000  -0.000810   0.000549  79.999900   0.004526   0.001062   3.341410  18.652500   4.754840   0.764851   0.000657  -0.148342  -1.954960  -3.319000  -0.282578   0.000000   0.000000   0.000000   4.411090  16.710600  -2.040350  -1.687570   4.547260  -6.296460   0.196071  -6.174310  -1.735830   0.000000   0.000000  -0.000000
  0.403703  89.474800  -0.084512  -3.013470 -15.756800   2.552390   0.689113   9.069290   2.451190   0.998100  18.159600   4.884090   4.425640   1.004970  -0.087776   7.276680   2.001320 -12.931200  -3.650730  -2.449950  -0.845388 -74.144100  19.067000  -5.902660  -0.856580  -5.248240 -17.302800  11.834800  -2.545860   3.608160  38.859700  31.334100 -55.026200 -32.273100   0.000000   0.000000 -11.136600   0.002654   0.000078 -32.000500   4.892070  -7.770490 -26.454100   0.004083   0.001566 -18.517800  -0.003067   0.006260 -28.775700  -1.072620   1.951300 -42.804700  -0.005050   0.005865 -28.507900  -0.005253   0.001662 -28.736000  -1.071000   1.952180 -40.291700  -0.005775   0.000691 -26.834300  -0.004578   0.001143 -35.013600  -1.277690   1.823630 -52.549800   0.000573   0.000069 -34.998200  -0.005692   0.000000   7.305550  -2.873140   9.512320  40.057900  -7.659300  47.065500 -40.743700  -7.807310  46.299500 -61.385600  15.628600  20.007900 -25.029700  59.462600  64.199000  81.571600  -0.007101  -0.015688  47.666700  -0.002637   0.003742   5.228880   1.702130  17.985100   4.498570   0.000347  -0.010975   3.149020  -0.000636  -0.004364  89.000000   0.000861  -0.001084  93.016900  -0.003512  -0.002402  69.762700  -0.001629   0.004768  88.996500  -4.992360  -0.083969  89.153100  -0.001629   0.003571  66.864700  -0.001741   0.002490  88.985100  -9.995850  -0.173151 110.000000  -0.000780   0.000529  79.999900   0.004517   0.001011   3.340320  18.627900   4.768630   0.761441   0.000418  -0.156936  -1.949210  -3.330450  -0.276530  -0.000000   0.000000   0.000000   4.410050  16.699500  -2.043710  -1.687840   4.530140  -6.283710   0.193855  -6.171510  -1.736540   0.000000   0.000000   0.000000
